<svg xmlns="http://www.w3.org/2000/svg" viewBox="0 0 100 100" width="100" height="100"><defs><linearGradient id="e" x1="0.15" y1="0.1" x2="0.85" y2="0.95"><stop offset="0" stop-color="#ffe0e0"/><stop offset="0.4" stop-color="#ff6b6b"/><stop offset="1" stop-color="#9c2430"/></linearGradient><linearGradient id="f" x1="0.2" y1="0.1" x2="0.8" y2="0.95"><stop offset="0" stop-color="#ff9a9a"/><stop offset="0.5" stop-color="#ff6b6b"/><stop offset="1" stop-color="#d63f4c"/></linearGradient><linearGradient id="g" x1="0" y1="0" x2="0" y2="1"><stop offset="0" stop-color="#fff" stop-opacity="0.6"/><stop offset="1" stop-color="#fff" stop-opacity="0"/></linearGradient></defs><circle cx="52" cy="54" r="45" fill="#6b1620"/><circle cx="50" cy="51" r="45" fill="url(#e)"/><circle cx="50" cy="51" r="36" fill="url(#f)"/><path d="M20 44A31 31 0 0 1 80 44Z" fill="url(#g)" opacity="0.5"/><path d="M22 38A32 32 0 0 1 44 21" fill="none" stroke="#fff" stroke-opacity="0.85" stroke-width="3.5" stroke-linecap="round"/><g fill="none" stroke-linecap="round" stroke-linejoin="round" stroke-width="8.500"><path d="M57 35V56A8.500 8.500 0 0 1 40 56" stroke="#fff" stroke-opacity="0.45" transform="translate(0.8 1.4)"/><path d="M57 35V56A8.500 8.500 0 0 1 40 56" stroke="#5e0f1a"/></g></svg>
